<?xml version="1.0" encoding="utf-8"?>
<!-- Uploaded to: SVG Repo, www.svgrepo.com, Generator: SVG Repo Mixer Tools -->
<svg width="800px" height="800px" viewBox="-26.33 0 341.917 341.917" xmlns="http://www.w3.org/2000/svg"><defs><style>.a{fill:#ffffff;}.b{fill:#211715;}.c{fill:#7a7473;}.d{fill:#6dbf6b;}</style></defs><path class="a" d="M195.309,106.815a8.153,8.153,0,0,1,6.522-1.908,7.7,7.7,0,0,1,5.533,3.679,10.891,10.891,0,0,1,1.139,4.377,32.6,32.6,0,0,1-3.325,17.283,20.728,20.728,0,0,1-5.358,7.033,13.731,13.731,0,0,1-6.39,2.88l-1.085.167c-.536,1.973-1.123,3.62-1.411,4.5-1.784,4.843-11.43,21.111-23.774,28.059.359,3.108.6,5.206.6,5.206.18,1.55.4,3.06.64,4.47.77,4.4.53,8.33,6.65,10.54.4.15,7.19,3.28,8.1,3.69l1.352.609-.425.36c-7.661,6.489-29.733,13.018-45.952,12.978-17.169-.043-35.524-6.289-45.552-12.673l.737-.314c.75-.32,10.6-4.5,11.01-4.65,6.11-2.21,5.87-6.14,6.64-10.54.3-1.72.56-3.77.77-5.91,0,0,.185-1.883.484-4.99a51.157,51.157,0,0,1-11.756-10.55,55.462,55.462,0,0,1-10.568-20.629c-1.3-.2-2.082-.318-2.082-.318a13.728,13.728,0,0,1-6.389-2.88,20.718,20.718,0,0,1-5.359-7.033,32.6,32.6,0,0,1-3.325-17.283,10.876,10.876,0,0,1,1.14-4.377,7.7,7.7,0,0,1,5.533-3.679,8.152,8.152,0,0,1,6.521,1.908S76.4,58.17,137.735,58.17,195.309,106.815,195.309,106.815Z"/><path class="b" d="M93.787,200.133c3.621-1.545,7.34-3.13,10.569-4.474,2.6-1.085,5-2.153,6.659-4.553,1.612-2.328,1.81-5.207,2.262-7.912.639-3.822.968-7.683,1.34-11.538a2.417,2.417,0,0,0-2.4-2.4,2.452,2.452,0,0,0-2.4,2.4c-.283,2.933-.5,5.888-.935,8.8-.216,1.461-.444,2.926-.691,4.382a10.844,10.844,0,0,1-.905,3.173c-.875,1.6-2.61,2.348-4.393,3.093-2.043.854-4.081,1.72-6.119,2.583q-2.706,1.146-5.41,2.3a2.416,2.416,0,0,0-.861,3.284,2.465,2.465,0,0,0,3.284.861Z"/><path class="b" d="M164.76,172.88c.305,2.637.583,5.278.954,7.906a42.292,42.292,0,0,0,1.418,7.793,10.3,10.3,0,0,0,5.281,5.988,14.093,14.093,0,0,0,2.037.857c-.845-.26-.091-.03.268.132q1.313.591,2.62,1.194c1.984.908,3.966,1.821,5.956,2.717a2.471,2.471,0,0,0,3.283-.861,2.417,2.417,0,0,0-.861-3.283c-2.109-.951-4.211-1.92-6.315-2.882-1.967-.9-4.607-1.652-6.218-3.051a4.782,4.782,0,0,1-1.612-2.694,37.624,37.624,0,0,1-.761-4.219c-.513-3.19-.879-6.387-1.25-9.6a2.474,2.474,0,0,0-2.4-2.4,2.415,2.415,0,0,0-2.4,2.4Z"/><path class="c" d="M185.7,91.108a83,83,0,0,1,9.335,15.972,8.1,8.1,0,0,1,6.8-2.173,7.294,7.294,0,0,1,1.418.358c4.054-10.41,4.648-25.492-.469-39.8-3.6-10.06-12.569-20.6-18.939-23.537l-9.2-6.614c-7.836-10.735-19.684-16.393-36.4-16.9-15.657-.479-33.7,2.683-47.411,16.485l4.414,4.455C87.162,44.537,80.835,54.258,77.9,62.881c-3.52,10.338-4.571,25.048-.392,42.428l.03.125a7.754,7.754,0,0,1,1.874-.527,8.057,8.057,0,0,1,6.976,2.358C102.16,92.189,115.9,83.239,129.756,72.352c.08.923,3.034,8.3,3.724,8.586.941.382,11.259-6.1,18.454-10.533l11.326,2.98a42.272,42.272,0,0,1,13.278,7.776A62.93,62.93,0,0,1,185.7,91.108Z"/><path class="a" d="M216.681,339.6c-.085-8.84-.155-18.309-.21-27.687l2.166.13c4.852.292,25.222-.8,36-1.9-.067,1.691.448,12.563,1.28,29.452"/><path class="a" d="M25.923,339.6c.832-16.888,1.077-25.539,1.282-29.452,10.779,1.093,31.148,2.188,36,1.9l1.922-.116c-.055,9.373-.125,18.838-.21,27.673"/><path class="d" d="M64.918,339.6c.085-8.836.155-18.3.2-27.672l-1.916.115c-5.929.356-35.014-1.357-41.484-2.607.842-7.363,7.473-64.173,14.456-77.551a24.957,24.957,0,0,1,2.831-5.2c3.8-5.183,12.669-11.433,18.223-14.666,7.922-4.612,21.035-10.309,34.029-14.831,9.675,6.675,28.92,13.5,46.867,13.544,17.978.044,43.146-7.982,47.9-15.081,14.4,4.71,29.729,11.216,38.579,16.368,5.555,3.233,14.424,9.483,18.223,14.666a24.911,24.911,0,0,1,2.831,5.2c6.983,13.378,13.614,70.188,14.457,77.551-6.471,1.25-35.556,2.963-41.484,2.607l-2.162-.13c.051,9.377.121,18.847.206,27.687"/><path class="b" d="M24.832,311.353c-.319,9.419-.845,18.833-1.309,28.245-.152,3.088,4.648,3.08,4.8,0,.464-9.412.99-18.826,1.309-28.245.1-3.089-4.7-3.086-4.8,0Z"/><path class="b" d="M100.371,191.705a256.941,256.941,0,0,0-33.991,12.93c-9.189,4.268-18.134,9.445-25.53,16.455a27.741,27.741,0,0,0-5.336,6.63,42.285,42.285,0,0,0-3.7,9.815c-.779,2.992,3.849,4.268,4.628,1.276,1.339-5.143,3.241-9.806,7.031-13.584a71.506,71.506,0,0,1,11.952-9.286c8.49-5.45,17.962-9.437,27.338-13.077,6.21-2.409,12.5-4.607,18.88-6.53,2.95-.89,1.693-5.524-1.276-4.629Z"/><path class="b" d="M62.88,251.157c.109,21.844-.04,43.691-.181,65.535q-.073,11.454-.181,22.907c-.03,3.089,4.77,3.092,4.8,0q.369-38.221.379-76.446,0-6-.017-12c-.015-3.088-4.815-3.094-4.8,0Z"/><path class="b" d="M213.919,251.157c-.109,21.844.04,43.691.181,65.535q.073,11.454.181,22.907c.03,3.087,4.83,3.1,4.8,0q-.369-38.221-.379-76.446,0-6,.017-12c.015-3.089-4.785-3.093-4.8,0Z"/><path class="b" d="M90.89,199.827a77.231,77.231,0,0,0,17.166,7.994,101.086,101.086,0,0,0,21.886,4.851c13.387,1.431,27.136-.847,39.825-5.173,5.6-1.909,11.421-4.212,16.011-8.047a2.42,2.42,0,0,0,0-3.394,2.453,2.453,0,0,0-3.395,0c-.17.142-.34.284-.516.42.377-.291-.25.175-.262.184-.412.286-.824.569-1.247.837-1.025.648-2.087,1.236-3.168,1.786a63.345,63.345,0,0,1-7.335,3.109,107.5,107.5,0,0,1-18.165,4.72,84.867,84.867,0,0,1-39.772-3.078,74.922,74.922,0,0,1-18.606-8.354c-2.6-1.687-5.007,2.467-2.422,4.145Z"/><path class="b" d="M33.692,231.519A70.324,70.324,0,0,0,29.575,244.5c-1.419,5.912-2.558,11.891-3.605,17.879-2.107,12.042-3.809,24.156-5.345,36.283q-.682,5.38-1.3,10.769a2.392,2.392,0,0,0,1.762,2.315,137.36,137.36,0,0,0,15.739,1.6c6.483.464,12.978.841,19.475,1.046,2.3.072,4.612.172,6.908.042,3.071-.175,3.091-4.976,0-4.8a137.665,137.665,0,0,1-14.715-.373c-6.492-.332-12.985-.745-19.458-1.346-1.394-.129-2.789-.268-4.18-.433l-.825-.1c-.443-.055.064.009.129.018-.158-.022-.317-.043-.475-.067-.442-.065-.883-.135-1.322-.218l1.762,2.314q1.424-12.436,3.13-24.411c1.75-12.342,3.645-24.706,6.4-36.869.635-2.8,1.321-5.6,2.132-8.358.337-1.149.7-2.292,1.1-3.421.176-.5.359-.994.553-1.485.084-.212.334-.8.1-.253.1-.233.2-.465.309-.7a2.471,2.471,0,0,0-.861-3.284,2.42,2.42,0,0,0-3.283.861Z"/><path class="b" d="M252.21,311.353c.319,9.419.846,18.833,1.309,28.245.152,3.075,4.953,3.093,4.8,0-.463-9.412-.99-18.826-1.309-28.245-.1-3.08-4.9-3.1-4.8,0Z"/><path class="b" d="M180.2,196.334a248.5,248.5,0,0,1,32.494,12.283c8.734,4.037,17.255,8.82,24.377,15.37a24.8,24.8,0,0,1,4.926,5.815,36.221,36.221,0,0,1,3.4,9.009c.778,2.987,5.409,1.721,4.628-1.276-1.47-5.648-3.668-10.968-7.777-15.207a73.639,73.639,0,0,0-12.523-9.955c-8.83-5.809-18.755-9.979-28.562-13.821-6.472-2.535-13.036-4.84-19.691-6.847-2.964-.893-4.231,3.738-1.276,4.629Z"/><path class="b" d="M244.006,233.942c.084.184.164.369.247.553.162.358-.176-.455.067.165.167.428.335.855.492,1.287.353.971.674,1.953.976,2.941.721,2.355,1.338,4.742,1.909,7.137,1.4,5.881,2.533,11.827,3.573,17.782,1.1,6.3,2.081,12.618,2.995,18.947.808,5.6,1.462,10.455,2.166,16.02q.675,5.327,1.29,10.661l1.762-2.314c-.341.065-.683.122-1.025.174-.23.035-.461.067-.692.1-.33.047.478-.061.134-.018l-.444.056c-1.186.147-2.376.271-3.565.388-3.051.3-6.108.536-9.166.754-6.425.456-12.861.829-19.3,1.029-2.256.07-4.533.166-6.788.038-3.087-.175-3.077,4.625,0,4.8a139.445,139.445,0,0,0,15.006-.388c6.517-.337,13.035-.753,19.532-1.365,2.53-.238,5.085-.465,7.584-.939a2.4,2.4,0,0,0,1.762-2.315q-1.466-12.8-3.283-25.547c-1.772-12.516-3.689-25.06-6.5-37.391a76.531,76.531,0,0,0-4.583-14.978,2.418,2.418,0,0,0-3.283-.861,2.456,2.456,0,0,0-.861,3.284Z"/><path class="b" d="M254.372,37.5l-.179-.36c-.95-1.907-3.845-1.312-4.387.573-.084.252-.074.258.029.02a4.523,4.523,0,0,1-.219.413,2.929,2.929,0,0,1-.436.585,8.1,8.1,0,0,1-1.575,1.335,11.514,11.514,0,0,1-5.655,2.019,14.239,14.239,0,0,1-7.543-1.923,8.52,8.52,0,0,1-4.3-6.863,7.425,7.425,0,0,1,1.5-4.546,7.161,7.161,0,0,1,.564-.6q.188-.18.386-.348c-.164.118-.134.1.09-.062a7.921,7.921,0,0,1,.733-.433c.412-.22-.393.113.232-.072a2.429,2.429,0,0,0,.573-4.387,8.074,8.074,0,0,1-4.168-6.657c-.138-2.8,1.254-5,3.275-6.847.406-.371,0-.029.284-.237.14-.1.281-.2.425-.3a7.067,7.067,0,0,1,.691-.4c.077-.038.745-.315.328-.152q.382-.15.771-.277a12.132,12.132,0,0,1,2.066-.51,8.244,8.244,0,0,1,8.2,3.7,2.421,2.421,0,0,0,4.472-1.212c.2-2.828,3.8-4.877,6.444-5.072a9.922,9.922,0,0,1,4.276.512,10.084,10.084,0,0,1,2,.89q.391.228.768.482c.082.056.657.484.276.182a9.875,9.875,0,0,1,3.882,7.529,9.075,9.075,0,0,1-1.128,4.5,4.629,4.629,0,0,1-.805,1.123c-.177.189-.363.365-.557.536-.34.3.3-.178-.25.16a2.43,2.43,0,0,0,.574,4.387c.089.024.872.294.4.1a6.14,6.14,0,0,1,.831.436,5.237,5.237,0,0,1,1.385,1.224,7.924,7.924,0,0,1,1.748,4.619,7.93,7.93,0,0,1-1.176,4.19,9.9,9.9,0,0,1-1.946,2.514c-.167.166-.343.32-.514.48-.1.093-.58.458-.073.076-.226.17-.456.334-.692.489a8.637,8.637,0,0,1-4.272,1.51,9.061,9.061,0,0,1-5.192-1.294,6.371,6.371,0,0,1-1.445-1.151c-.07-.073-.669-.78-.327-.327a6.213,6.213,0,0,1-.374-.561c-1.584-2.648-5.735-.238-4.144,2.423,3.7,6.184,12.789,7.3,18.459,3.353,4.539-3.16,7.586-8.947,6.088-14.494-1.011-3.745-3.637-7.151-7.482-8.215l.573,4.387c5.613-3.479,6.346-11.834,3.279-17.191-3.421-5.976-11.071-9.387-17.751-6.988-3.946,1.418-7.347,4.876-7.658,9.191l4.473-1.211c-3.719-6.149-11.719-7.6-17.936-4.482a13.228,13.228,0,0,0-6.821,13.861A12.722,12.722,0,0,0,231.767,27l.573-4.387a10.161,10.161,0,0,0-6.22,6.31,12.006,12.006,0,0,0,1.089,10.666c3.468,5.609,11.131,8.356,17.485,6.928,3.8-.853,8.587-3.512,9.741-7.526l-4.387.574.18.36C251.605,42.687,255.747,40.258,254.372,37.5Z"/><path class="b" d="M24.777,121.261l-.147-.3c-.955-1.916-3.835-1.3-4.387.573-.137.467.172-.227-.086.207.009-.014-.417.569-.232.345a5.935,5.935,0,0,1-1.381,1.181,8.995,8.995,0,0,1-4.416,1.55,11.372,11.372,0,0,1-5.946-1.538,6.582,6.582,0,0,1-3.3-5.227,5.688,5.688,0,0,1,1.187-3.573c0-.007.336-.332.446-.444.091-.087.185-.171.282-.251-.142.108-.149.116-.019.025.174-.117.357-.214.537-.32.138-.081-.39.116.138-.043a2.429,2.429,0,0,0,.573-4.386,6.24,6.24,0,0,1-3.216-5.138,6.633,6.633,0,0,1,2.633-5.353c.332-.294-.074.04.1-.085.134-.095.267-.192.407-.279.175-.11.352-.2.535-.3.056-.03.569-.234.163-.076.213-.083.428-.158.645-.228a9.763,9.763,0,0,1,1.536-.389,6.363,6.363,0,0,1,6.377,2.83,2.421,2.421,0,0,0,4.472-1.211c.168-2.133,3.044-3.633,5.031-3.751a7.948,7.948,0,0,1,3.435.475,7.843,7.843,0,0,1,1.311.6c.225.129.439.274.659.411.04.025.583.437.183.115a7.834,7.834,0,0,1,3.021,5.328,7.217,7.217,0,0,1-.673,3.695,5.143,5.143,0,0,1-.741,1.132,5.807,5.807,0,0,1-.491.476c.283-.244.053-.044-.119.064a2.43,2.43,0,0,0,.573,4.387c.076.021.705.247.479.148-.209-.092.448.256.527.307a4.2,4.2,0,0,1,.94.86,6.131,6.131,0,0,1,1.332,3.554,7.256,7.256,0,0,1-2.445,5.177c-.137.135-.279.263-.42.393-.1.088-.2.168-.3.249.5-.4-.071.039-.145.085a7.343,7.343,0,0,1-3.2,1.235,6.9,6.9,0,0,1-4.177-.95,4.875,4.875,0,0,1-1.065-.815c-.164-.16-.321-.328-.469-.5.344.407-.09-.149-.15-.249-1.594-2.642-5.746-.232-4.145,2.422,3.188,5.286,10.933,6.3,15.808,2.88,3.923-2.749,6.509-7.786,5.1-12.569a9.678,9.678,0,0,0-6.392-6.853l.574,4.387c3.1-1.94,4.63-5.964,4.4-9.512a12.692,12.692,0,0,0-5.107-9.249A13.162,13.162,0,0,0,24.993,90.48c-4.095.729-7.776,4.1-8.112,8.356l4.473-1.212c-3.615-5.938-12.125-6.868-17.3-2.445a10.936,10.936,0,0,0,1.554,18.03l.574-4.387a8.758,8.758,0,0,0-5.354,5.346,10.287,10.287,0,0,0,.817,9.137c2.935,4.874,9.568,7.266,15.037,5.969,3.251-.771,7.187-3.042,8.192-6.46l-4.386.573.147.3C22.01,126.449,26.152,124.02,24.777,121.261Z"/><path class="b" d="M275.2,188.706l-.12-.242c-.96-1.927-3.821-1.29-4.387.574-.124.407.116-.142-.055.11-.248.364.406-.422-.177.241a4.617,4.617,0,0,1-.9.765,6.921,6.921,0,0,1-3.385,1.24,8.871,8.871,0,0,1-4.575-1.131,5,5,0,0,1-2.584-3.913,4.327,4.327,0,0,1,.714-2.487,4.187,4.187,0,0,1,.462-.5c.06-.06.477-.361.171-.154a2.357,2.357,0,0,1,.36-.217c.586-.261-.447.137.065-.02a2.429,2.429,0,0,0,.573-4.387,4.669,4.669,0,0,1-2.4-3.757,4.937,4.937,0,0,1,1.977-4.083c.3-.263-.254.175.016-.022.091-.067.182-.134.278-.195.143-.09.285-.174.434-.254.048-.027.46-.2.226-.107-.211.085.279-.093.32-.106a7.8,7.8,0,0,1,1.48-.364,4.746,4.746,0,0,1,4.57,2.127,2.421,2.421,0,0,0,4.472-1.212c.124-1.429,2.252-2.515,3.652-2.621a5.9,5.9,0,0,1,2.74.385,6.269,6.269,0,0,1,1.126.549c.142.086.279.179.417.27.383.252-.143-.144.12.088A5.852,5.852,0,0,1,283,173.4a5.444,5.444,0,0,1-.524,2.648,2.913,2.913,0,0,1-.484.762,5.325,5.325,0,0,1-.4.393c-.274.249.419-.278-.035.009a2.43,2.43,0,0,0,.574,4.386c.011,0,.536.2.293.082-.269-.128.278.155.327.186a2.949,2.949,0,0,1,.751.667,4.611,4.611,0,0,1,.982,2.574,5.435,5.435,0,0,1-1.853,3.946c-.112.11-.231.213-.343.323-.065.063-.143.119-.212.176.286-.236.167-.11-.062.028a5.837,5.837,0,0,1-2.5.972,5.1,5.1,0,0,1-3.022-.683,3.478,3.478,0,0,1-.858-.643c-.136-.136-.27-.273-.392-.421.229.278.067.08-.044-.1-1.605-2.634-5.758-.225-4.144,2.423,3.192,5.237,10.99,5.415,15.075,1.212a10.069,10.069,0,0,0,3.09-7.935,8.562,8.562,0,0,0-5.815-7.433l.573,4.387c5.651-3.577,4.508-12.2-.333-15.894a11.209,11.209,0,0,0-9.032-2.051,8.388,8.388,0,0,0-6.682,7.2L272.4,169.4c-3.138-5.107-10.414-5.895-14.863-2.05-4.844,4.187-4.329,12.207,1.4,15.379l.573-4.386c-3.019.925-4.878,3.927-5.226,6.943a9.568,9.568,0,0,0,4.343,8.776,12.907,12.907,0,0,0,8.168,2.073c3.34-.358,7.469-2.359,8.522-5.824l-4.387.573.121.242C272.428,193.894,276.57,191.465,275.2,188.706Z"/><path class="b" d="M197.006,108.512a5.676,5.676,0,0,1,7.913.7c1.086,1.4,1.2,3.389,1.271,5.084a29.255,29.255,0,0,1-.351,6.215c-1.233,7.194-5.031,15.961-13.047,17.338a2.419,2.419,0,0,0-1.676,2.952,2.454,2.454,0,0,0,2.952,1.676c8.235-1.414,13.137-9.156,15.418-16.577a34.429,34.429,0,0,0,1.467-12.269c-.261-3.989-1.469-7.74-5.134-9.828a10.655,10.655,0,0,0-12.207,1.319,2.421,2.421,0,0,0,0,3.394,2.448,2.448,0,0,0,3.394,0Z"/><path class="b" d="M190.946,134.092A27.443,27.443,0,0,1,189.651,141c-.26.87-.545,1.732-.834,2.593-.078.232-.153.466-.238.7-.036.1-.08.192-.113.289-.173.5.138-.306.028-.066a58,58,0,0,1-3.607,6.6,64.991,64.991,0,0,1-14.512,16.74,27.651,27.651,0,0,1-10.751,5.439c-3.009.691-1.736,5.32,1.276,4.628,8.115-1.864,14.912-7.7,20.273-13.814a70.2,70.2,0,0,0,11.312-16.824,35.614,35.614,0,0,0,3.261-13.19c.1-3.09-4.7-3.086-4.8,0Z"/><path class="b" d="M87.629,105.118A10.615,10.615,0,0,0,76.7,103.2c-3.87,1.589-5.779,4.917-6.273,8.944a33.445,33.445,0,0,0,5.846,23.1,17.424,17.424,0,0,0,10.9,7.232,2.469,2.469,0,0,0,2.952-1.676,2.419,2.419,0,0,0-1.676-2.952C80.433,136.468,76.636,127.7,75.4,120.507a29.192,29.192,0,0,1-.359-5.994c.064-1.711.146-3.713,1.182-5.16a5.647,5.647,0,0,1,8.01-.841,2.462,2.462,0,0,0,3.394,0,2.421,2.421,0,0,0,0-3.394Z"/><path class="b" d="M85.825,133.295c2.962,17.1,12.223,33.837,28.061,42.094a38.054,38.054,0,0,0,13.768,4.125,2.416,2.416,0,0,0,2.4-2.4,2.454,2.454,0,0,0-2.4-2.4c-16.359-1.695-29.11-16.355-34.254-31.093a73.007,73.007,0,0,1-2.947-11.6,2.419,2.419,0,0,0-2.952-1.676,2.454,2.454,0,0,0-1.676,2.952Z"/><path class="b" d="M155.4,86.958c-.463,2.932-.322,6.3,1.94,8.515a7.169,7.169,0,0,0,8.885.616,6.546,6.546,0,0,0,2.916-5.276,2.4,2.4,0,0,0-4.8,0,1.906,1.906,0,0,0-.018.376c-.007,0,.1-.549.041-.334-.02.078-.032.159-.052.237-.029.114-.082.228-.1.343-.053.257.131-.356.13-.3a.688.688,0,0,1-.105.212c-.055.1-.115.206-.18.305a.947.947,0,0,1-.135.195c-.042.03.382-.425.191-.255-.158.141-.343.478-.553.542-.043.013.461-.33.247-.193-.05.033-.1.07-.148.1-.118.078-.239.15-.363.218-.107.058-.218.108-.326.163-.2.1.288-.129.292-.124a2.093,2.093,0,0,0-.231.081q-.175.057-.354.1c-.1.024-.625.109-.164.05.445-.057-.006,0-.111,0-.144.008-.289.009-.433,0-.111,0-.635-.064-.16,0,.451.063.028,0-.076-.022a5.892,5.892,0,0,1-.675-.192c-.361-.119.554.278.151.057-.088-.049-.176-.094-.262-.146s-.162-.114-.247-.163c-.161-.1.292.225.292.227,0-.024-.126-.108-.147-.127-.084-.076-.164-.156-.241-.239s-.307-.374-.032-.018.045.054-.013-.035c-.073-.111-.141-.225-.2-.342-.047-.088-.086-.184-.135-.271-.1-.171.156.331.139.338,0,0-.053-.136-.056-.146-.082-.236-.158-.471-.217-.714-.03-.126-.056-.252-.079-.379-.01-.055-.016-.112-.028-.166-.062-.276.056.584.039.3s-.051-.588-.056-.885,0-.578.024-.866c.011-.17.029-.339.045-.509.008-.085.042-.33-.011.06-.061.453,0,0,.014-.071a2.619,2.619,0,0,0-.242-1.85,2.4,2.4,0,0,0-4.386.574Z"/><path class="b" d="M95.593,106.5a9.247,9.247,0,0,0,2.6,5.9,6.363,6.363,0,0,0,4.316,1.757,5.866,5.866,0,0,0,4.807-2.617,6.3,6.3,0,0,0,.4-5.245,2.4,2.4,0,1,0-4.628,1.276,9.943,9.943,0,0,1,.257,1.159l-.086-.638a4.358,4.358,0,0,1,.022,1.046l.086-.638a3.209,3.209,0,0,1-.182.707l.242-.574a3.049,3.049,0,0,1-.4.672l.375-.485a3.886,3.886,0,0,1-.516.51l.486-.375a3.751,3.751,0,0,1-.772.456l.573-.242a3.888,3.888,0,0,1-.861.239l.638-.086a3.891,3.891,0,0,1-.9.011l.638.086a4.043,4.043,0,0,1-1.017-.281l.573.242a4.406,4.406,0,0,1-.878-.518l.485.375a4.906,4.906,0,0,1-.808-.815l.376.486a6.319,6.319,0,0,1-.765-1.323l.242.573a8.419,8.419,0,0,1-.569-2.08l.086.638c-.01-.071-.019-.143-.026-.215a2.615,2.615,0,0,0-.7-1.7,2.4,2.4,0,0,0-3.395,0,2.321,2.321,0,0,0-.7,1.7Z"/><path class="b" d="M182.629,44a26.98,26.98,0,0,1,8,6.392,51.732,51.732,0,0,1,7.494,10.54c4.471,8.3,6.187,18.236,5.9,27.6a50.469,50.469,0,0,1-2.371,14.089c-.955,2.945,3.678,4.207,4.629,1.276,3.035-9.356,3.205-19.553,1.455-29.175a55.056,55.056,0,0,0-12.571-26.437c-2.821-3.271-6.166-6.56-10.116-8.428a2.469,2.469,0,0,0-3.284.861A2.422,2.422,0,0,0,182.629,44Z"/><path class="b" d="M99.6,34.5C89.846,38.154,82.6,46.927,78.139,56.084c-4.38,9-5.932,19.066-5.732,29.014a98.871,98.871,0,0,0,2.786,20.849c.715,3,5.344,1.732,4.628-1.276-4.5-18.888-4.2-40.569,8.84-56.162,3.3-3.941,7.345-7.557,12.219-9.385a2.466,2.466,0,0,0,1.676-2.952A2.419,2.419,0,0,0,99.6,34.5Z"/><path class="b" d="M176.714,34.1a41.754,41.754,0,0,0-12.666-11.549,48.415,48.415,0,0,0-17.212-5.774c-12.572-1.851-26.22-.9-38.118,3.731A56.648,56.648,0,0,0,89.132,33.2c-2.189,2.186,1.2,5.581,3.394,3.394,8.875-8.861,20.626-13.835,33-15.278,11.214-1.308,23.65-.9,33.932,4.219A36.377,36.377,0,0,1,172.57,36.524a2.47,2.47,0,0,0,3.283.861,2.416,2.416,0,0,0,.861-3.283Z"/><path class="b" d="M152.125,67.47c-5.686,3.489-11.285,7.213-17.19,10.327-.435.23-.877.445-1.32.66-.095.044-.191.087-.287.128.356-.147.422-.178.2-.09.008.012-.371.1-.389.12.375-.4,2.342.831,1.886.493.208.154.3.492.1.085-.234-.469-.5-.922-.723-1.4-.578-1.22-.9-2-1.39-3.273-.218-.563-.431-1.127-.624-1.7-.1-.292-.373-1.569-.229-.473a2.441,2.441,0,0,0-4.1-1.7C113.977,81.7,99.3,91.866,86.2,104.134c-2.258,2.117,1.141,5.506,3.395,3.395,13.091-12.268,27.774-22.432,41.855-33.48l-4.1-1.7a23.876,23.876,0,0,0,2.066,5.994c.688,1.619,1.523,4.4,3.461,4.917,1.74.465,3.758-.922,5.207-1.715,2.485-1.36,4.908-2.836,7.327-4.311,3.052-1.86,6.084-3.753,9.131-5.622,2.628-1.613.22-5.767-2.423-4.145Z"/><path class="b" d="M162.622,75.7a45.879,45.879,0,0,1,17.989,12.918,78.027,78.027,0,0,1,11.966,18.8,2.419,2.419,0,0,0,3.284.861,2.456,2.456,0,0,0,.861-3.284,81.908,81.908,0,0,0-13-20.091,54.747,54.747,0,0,0-9.22-8.364,48.873,48.873,0,0,0-10.607-5.47,2.418,2.418,0,0,0-2.953,1.676,2.456,2.456,0,0,0,1.677,2.952Z"/><path class="b" d="M103.408,128.27c-4.914-8.381-8.97-17.551-15.24-25.052a2.419,2.419,0,0,0-3.394,0,2.452,2.452,0,0,0,0,3.394c.186.223.37.447.549.675-.252-.321.162.215.2.263q.5.674.976,1.362c.746,1.073,1.459,2.169,2.156,3.275,1.486,2.358,2.9,4.763,4.282,7.182,2.146,3.752,4.142,7.594,6.328,11.324,1.562,2.663,5.712.25,4.145-2.423Z"/><path class="b" d="M181.174,130.693c4.43-7.15,9.162-14.127,13.805-21.139q.615-.925,1.231-1.851c.223-.333,1.013-1.193.173-.321l-4.1-1.7h0l.328-1.211-.019.035c-1.576,2.665,2.572,5.083,4.144,2.422a2.347,2.347,0,0,0,.347-1.247c-.192-1.955-2.543-3.31-4.1-1.7a16.964,16.964,0,0,0-1.678,2.425q-1.643,2.475-3.275,4.958-4.076,6.188-8.118,12.4c-.971,1.5-1.95,2.986-2.889,4.5-1.631,2.633,2.519,5.046,4.145,2.423Z"/><path class="a" d="M139.276,125.188c-8.564,0-22.849,1.325-32.115,2.052-1.713.134-5.908.629-7.017,1.9-2.062,2.369-1.28,7.424-1.547,10.3a74.82,74.82,0,0,0,.4,13.778c.618,6.055.918,12.508,4.991,17.232,7.53,8.731,24.98,13.381,36.443,13.381a68.187,68.187,0,0,0,22.432-4.14c6.251-2.283,12.1-6.115,15.368-11.623,3.085-5.194,2.964-10.4,3.626-16.318a62.471,62.471,0,0,0,.238-12.534c-.282-2.864.435-7.544-1.653-9.941-1.108-1.273-4.568-1.866-6.279-2.015C163.3,126.307,148.792,125.188,139.276,125.188Z"/><path class="b" d="M139.276,122.788c-8.3.015-16.6.788-24.869,1.464a104.51,104.51,0,0,0-11.15,1.1,9.2,9.2,0,0,0-4.675,1.952c-1.5,1.434-1.968,3.613-2.189,5.588-.207,1.848-.087,3.706-.142,5.56-.067,2.267-.268,4.5-.21,6.779a131.3,131.3,0,0,0,1.148,13.561c.605,4.642,1.729,9.163,4.718,12.882a29.168,29.168,0,0,0,8.424,6.786,63.849,63.849,0,0,0,49.078,4.885c8.565-2.519,17.483-7.026,21.616-15.4,2.117-4.29,2.553-8.949,2.98-13.645a83.471,83.471,0,0,0,.529-14.68c-.313-3.7.464-8.1-1.825-11.322-2.243-3.156-6.93-3.305-10.43-3.606-9.045-.776-18.106-1.49-27.18-1.8-1.941-.066-3.882-.107-5.823-.11-3.089,0-3.093,4.8,0,4.8,8.184.011,16.372.593,24.528,1.216,3.638.278,7.9.412,11.195.955a18.035,18.035,0,0,1,2.364.534,3.589,3.589,0,0,1,1.383.677c.829,1.088.811,2.861.846,4.162.107,4,.434,8,.238,12.01-.114,2.326-.394,4.633-.606,6.95-.184,2.016-.323,4.044-.686,6.038a19.43,19.43,0,0,1-5.309,10.474,29.108,29.108,0,0,1-9.883,6.343,61.057,61.057,0,0,1-25.168,4.425,61.888,61.888,0,0,1-20.508-4.648c-6.139-2.545-12.617-6.408-14.66-13.126-1.151-3.783-1.374-7.8-1.743-11.717a93.762,93.762,0,0,1-.226-13.132c.077-1.723-.041-3.448.088-5.169a7.9,7.9,0,0,1,.364-1.976,3.359,3.359,0,0,1,.379-.791c.117-.188-.147.052.161-.114,2.2-1.192,5.758-1.106,8.506-1.33,7.942-.648,15.888-1.361,23.852-1.673,1.628-.063,3.256-.105,4.885-.108C142.364,127.583,142.37,122.783,139.276,122.788Z"/><path class="b" d="M112,110.955c-.888,2.887-.309,9.527,5.159,10.092,7.228-.044,7.612-8.071,5.179-11.846C120.345,106.111,114.488,104.826,112,110.955Z"/><path class="b" d="M169.876,110.956c.888,2.886.309,9.526-5.159,10.091-7.227-.044-7.612-8.072-5.179-11.846C161.529,106.111,167.387,104.826,169.876,110.956Z"/></svg>